<?xml version="1.0" standalone="no"?>
<!DOCTYPE svg PUBLIC "-//W3C//DTD SVG 20010904//EN"
 "http://www.w3.org/TR/2001/REC-SVG-20010904/DTD/svg10.dtd">
<svg version="1.0" xmlns="http://www.w3.org/2000/svg"
 width="1080.000000pt" height="1080.000000pt" viewBox="0 0 1080.000000 1080.000000"
 preserveAspectRatio="xMidYMid meet">
<metadata>
Created by potrace 1.14, written by Peter Selinger 2001-2017
</metadata>
<g transform="translate(0.000000,1080.000000) scale(0.100000,-0.100000)"
fill="#000000" stroke="none">
<path d="M1923 10746 c-29 -30 -53 -59 -53 -66 0 -7 -13 -28 -30 -47 -16 -18
-30 -39 -30 -45 0 -6 -22 -45 -48 -87 -27 -42 -52 -88 -56 -103 -3 -15 -12
-33 -20 -41 -18 -18 -71 -124 -80 -160 -4 -16 -17 -40 -30 -54 -13 -14 -36
-57 -51 -97 -15 -39 -36 -84 -45 -101 -10 -16 -28 -61 -40 -100 -11 -38 -30
-88 -41 -110 -10 -22 -19 -46 -19 -53 0 -7 -8 -27 -17 -45 -9 -18 -18 -41 -20
-51 -2 -11 -10 -27 -17 -35 -19 -22 -106 -190 -106 -206 0 -7 -7 -18 -15 -25
-8 -7 -12 -16 -10 -20 3 -5 -4 -25 -15 -45 -11 -19 -20 -44 -20 -55 0 -11 -4
-20 -10 -20 -5 0 -10 -9 -10 -20 0 -19 -19 -70 -30 -80 -3 -3 -11 -24 -18 -46
-7 -23 -19 -47 -27 -54 -8 -7 -15 -21 -15 -31 0 -10 -5 -21 -10 -24 -5 -3 -10
-17 -10 -30 0 -12 -7 -25 -15 -29 -8 -3 -15 -16 -15 -28 -1 -13 -10 -48 -21
-78 -11 -30 -21 -59 -22 -65 -2 -5 -8 -20 -15 -32 -7 -12 -12 -27 -12 -33 0
-6 -18 -49 -40 -95 -22 -46 -40 -90 -40 -97 0 -8 -7 -23 -15 -35 -8 -11 -21
-45 -29 -75 -8 -29 -19 -66 -26 -83 -7 -16 -16 -39 -20 -50 -11 -27 -77 -173
-95 -208 -8 -16 -15 -33 -15 -38 0 -5 -9 -28 -20 -52 -10 -23 -27 -64 -36 -91
-14 -43 -56 -135 -91 -201 -18 -33 -55 -124 -89 -218 -9 -26 -21 -50 -25 -53
-5 -3 -9 -14 -9 -25 0 -10 -4 -19 -9 -19 -4 0 -14 -21 -21 -47 -7 -27 -16 -52
-20 -58 -4 -5 -15 -32 -25 -60 -10 -27 -30 -70 -43 -95 -14 -24 -26 -51 -27
-60 -2 -27 -27 -105 -34 -110 -10 -7 -41 -99 -41 -121 0 -10 -17 -58 -39 -106
-21 -48 -42 -103 -45 -120 -4 -18 -11 -33 -15 -33 -3 0 -8 -11 -9 -25 -1 -14
-8 -39 -17 -54 -20 -39 -32 -128 -24 -171 15 -77 32 -166 34 -180 5 -38 39
-137 51 -151 8 -8 14 -21 14 -27 0 -7 8 -20 18 -30 9 -10 33 -38 52 -63 19
-24 45 -53 59 -64 26 -22 151 -93 218 -125 23 -12 45 -25 48 -30 4 -6 10 -8
15 -5 5 3 14 -1 22 -8 7 -8 25 -17 40 -20 15 -4 33 -13 40 -20 7 -6 20 -13 28
-15 19 -4 187 -89 220 -112 14 -9 40 -22 58 -29 17 -8 32 -17 32 -21 0 -4 12
-11 27 -15 28 -7 82 -41 95 -60 4 -5 8 -6 8 0 0 5 5 4 11 -2 7 -7 13 -66 16
-150 3 -76 5 -145 5 -153 1 -8 -2 -78 -6 -155 -6 -105 -11 -580 -6 -580 0 0 3
-45 5 -100 11 -247 16 -314 30 -380 8 -38 17 -86 19 -105 6 -48 10 -63 19 -77
5 -7 5 -13 1 -13 -3 0 -1 -6 5 -14 7 -8 14 -27 17 -43 3 -15 9 -30 15 -31 5
-2 9 -11 9 -21 0 -21 22 -71 32 -71 4 0 10 -15 13 -34 7 -34 -19 -93 -82 -186
-12 -19 -23 -40 -23 -47 0 -7 -6 -16 -12 -20 -7 -4 -19 -19 -27 -33 -180 -315
-256 -437 -304 -490 -13 -14 -26 -33 -30 -43 -4 -11 -16 -21 -27 -24 -11 -3
-20 -11 -20 -19 0 -7 -6 -11 -13 -8 -18 6 -40 86 -39 140 1 24 -3 44 -7 44 -9
0 -19 46 -25 123 -2 26 -8 53 -14 60 -5 7 -12 35 -15 62 -3 28 -11 79 -18 115
-7 36 -13 82 -13 102 0 22 -3 33 -8 25 -5 -7 -8 0 -8 19 0 17 -3 34 -7 38 -7
7 -12 27 -16 63 -1 13 -5 23 -8 23 -4 0 -6 6 -6 13 2 24 -15 87 -24 87 -5 0
-9 17 -10 38 0 20 -3 31 -6 25 -7 -18 -23 -16 -23 2 0 7 -6 18 -14 22 -8 4
-24 27 -36 50 -12 23 -30 45 -41 48 -10 4 -18 9 -18 13 3 20 -3 31 -20 37 -11
3 -24 18 -29 33 -5 16 -27 44 -47 63 -21 19 -44 41 -53 50 -11 13 -22 15 -43
9 -15 -5 -29 -6 -32 -4 -2 3 -10 -2 -17 -11 -7 -8 -20 -15 -30 -15 -10 0 -23
-7 -30 -15 -7 -8 -19 -15 -26 -15 -8 0 -14 -6 -14 -12 -1 -8 -6 -6 -14 5 -13
16 -14 16 -20 -5 -10 -41 -7 -1120 4 -1113 5 3 10 -1 10 -9 0 -9 -4 -16 -10
-16 -6 0 -9 -312 -10 -841 0 -556 3 -838 10 -834 6 3 10 1 10 -4 0 -6 -5 -11
-10 -11 -15 0 -12 -321 3 -339 9 -11 9 -15 0 -18 -7 -3 -13 -9 -13 -14 0 -6 4
-8 9 -4 6 3 6 -7 0 -27 -5 -18 -9 -109 -8 -202 0 -146 3 -172 17 -183 14 -11
14 -12 1 -8 -11 4 -15 -2 -16 -30 l-1 -35 816 0 817 1 -50 45 c-27 25 -67 60
-88 77 -20 17 -37 37 -37 45 0 7 -4 11 -9 7 -5 -3 -21 5 -34 17 -60 56 -88 78
-100 78 -15 0 -87 66 -87 79 0 5 32 42 71 82 39 41 79 85 88 99 9 14 26 33 38
43 13 10 23 25 23 33 0 8 4 14 8 14 4 0 16 14 26 30 9 17 28 43 42 58 39 44
44 51 44 57 0 4 11 21 25 39 14 18 25 37 25 41 0 4 10 22 23 39 12 17 28 42
35 56 7 14 33 58 58 99 25 41 48 87 51 103 3 15 12 33 19 39 8 6 14 18 14 25
0 7 11 37 25 66 55 120 176 524 196 658 10 65 25 129 33 137 4 4 11 -15 21
-57 1 -3 5 -16 8 -30 4 -14 9 -38 12 -54 10 -66 27 -146 50 -236 13 -52 26
-117 30 -145 14 -114 39 -212 121 -470 19 -60 34 -118 34 -128 0 -10 8 -46 19
-80 10 -34 31 -107 46 -162 15 -55 30 -104 34 -110 4 -5 13 -30 21 -55 44
-153 134 -365 149 -355 12 7 -14 109 -63 250 -51 147 -100 302 -112 355 -6 30
-22 89 -34 130 -12 41 -27 107 -34 146 -7 38 -16 75 -20 82 -4 6 -16 44 -27
84 -10 40 -29 107 -40 148 -11 41 -27 111 -36 155 -27 145 -30 160 -41 200
-11 41 -18 71 -72 305 -17 74 -35 153 -41 175 -20 77 -39 190 -39 232 0 34 5
46 30 66 28 24 87 50 141 61 29 6 89 54 89 71 0 15 53 65 68 65 41 0 112 25
142 50 50 43 51 43 90 67 19 11 52 23 73 26 21 3 54 18 75 34 43 32 78 53 90
53 5 0 9 -60 9 -132 0 -139 24 -334 47 -378 27 -52 42 -76 76 -125 39 -56 211
-235 227 -235 5 0 18 -9 28 -20 25 -28 100 -70 124 -70 27 0 33 -12 37 -78 8
-124 44 -370 60 -412 9 -25 17 -52 18 -61 5 -43 32 -81 80 -111 28 -18 59 -42
69 -53 16 -18 104 -191 138 -272 8 -18 17 -33 21 -33 5 0 8 -6 8 -14 0 -8 15
-45 34 -83 53 -106 86 -179 86 -191 0 -6 3 -12 8 -14 4 -2 34 -57 66 -122 33
-66 76 -144 96 -173 21 -29 43 -67 50 -85 7 -18 19 -40 26 -48 13 -15 55 -90
106 -188 19 -36 26 -42 55 -42 18 0 33 3 33 8 0 4 -16 33 -35 65 -19 32 -35
60 -35 63 0 3 -16 30 -35 60 -19 30 -35 56 -35 59 0 2 -24 42 -54 87 -29 46
-79 135 -111 198 -32 63 -73 138 -91 166 -19 28 -34 54 -34 57 0 8 -113 248
-140 298 -11 20 -20 47 -20 59 0 20 4 21 48 16 26 -3 83 -8 126 -12 43 -3 100
-15 125 -26 73 -31 129 -26 219 20 l77 39 120 -4 c138 -5 169 6 204 74 24 48
45 67 151 137 96 63 110 79 135 156 17 54 58 101 164 191 23 20 31 35 31 58 0
35 31 104 63 139 39 43 51 31 102 -100 26 -68 58 -144 71 -170 13 -26 38 -89
55 -140 17 -51 35 -102 39 -113 12 -27 42 -110 106 -300 30 -88 59 -169 64
-180 10 -23 18 -42 135 -340 48 -121 106 -260 130 -310 24 -50 57 -127 75
-172 30 -76 35 -83 61 -83 l27 0 -39 103 c-39 99 -55 135 -125 282 -18 39 -42
99 -52 135 -11 36 -45 122 -76 192 -31 71 -56 133 -56 139 0 5 -11 35 -25 65
-14 30 -25 57 -25 60 0 10 -82 238 -100 279 -10 22 -31 78 -46 125 -29 90 -59
164 -173 430 -39 90 -71 171 -71 178 0 7 30 41 66 75 36 34 70 69 74 77 4 8 4
37 0 63 -6 43 -3 56 24 110 16 34 35 65 41 69 13 9 11 188 -3 197 -11 7 -23
44 -58 176 -29 113 -28 176 5 266 11 30 38 113 60 184 35 113 41 143 42 230 0
55 -2 109 -6 120 -10 28 -39 89 -46 95 -3 3 -19 25 -36 50 -17 25 -53 71 -79
102 -27 31 -65 78 -84 103 -19 26 -46 59 -60 74 -14 15 -34 40 -45 56 -11 16
-25 33 -30 39 -6 6 -28 37 -49 68 -37 57 -40 78 -9 78 9 0 49 22 90 50 40 28
76 50 79 50 4 0 23 13 43 29 65 52 165 107 546 301 105 54 219 114 255 135
124 72 175 93 250 104 86 13 83 11 167 146 53 87 62 96 108 114 28 11 95 27
150 36 133 22 194 41 228 70 15 13 27 27 27 30 0 16 113 156 166 206 63 60
110 89 143 89 16 0 21 -9 26 -37 3 -21 10 -60 15 -88 9 -50 17 -102 26 -163 6
-45 49 -167 73 -205 48 -78 134 -146 302 -239 136 -75 151 -82 382 -161 133
-45 128 -41 230 -197 34 -52 84 -126 110 -163 26 -38 47 -71 47 -73 0 -3 6
-12 14 -20 8 -7 16 -18 18 -22 1 -5 37 -28 78 -52 l75 -42 83 5 c75 6 89 4
140 -19 74 -33 160 -29 242 11 44 22 63 26 99 21 24 -3 50 -11 57 -17 8 -6 42
-13 76 -16 58 -5 66 -3 105 26 24 17 47 31 52 31 5 0 11 4 13 10 4 12 95 30
149 30 21 0 63 9 93 21 45 16 70 36 134 106 l79 85 107 14 c59 8 115 18 124
23 19 10 73 78 101 126 15 25 34 35 107 59 49 15 108 37 132 47 52 23 72 24
72 3 0 -9 8 -28 18 -42 10 -15 24 -40 32 -56 l15 -29 3 51 c2 41 -3 63 -29
114 -17 34 -40 86 -50 115 -17 51 -17 51 4 70 12 11 35 27 50 37 l29 18 -4
176 c-3 161 -5 182 -27 232 -13 30 -34 69 -46 85 -11 17 -43 66 -70 110 -27
44 -62 93 -78 110 -16 16 -47 55 -68 85 -21 30 -53 72 -70 92 l-32 37 19 58
c15 48 19 90 19 248 l0 190 -55 73 c-30 41 -90 110 -132 155 -43 44 -78 84
-78 88 0 4 -31 40 -70 81 -38 40 -70 77 -70 82 0 4 -33 42 -72 83 l-73 75 30
25 c34 28 135 98 150 104 6 2 62 38 125 80 63 41 143 93 178 115 35 21 87 57
115 80 29 23 81 57 117 77 36 19 92 50 125 69 l60 34 3 55 3 56 -198 -4 c-109
-2 -245 -8 -303 -13 -58 -5 -181 -12 -275 -16 l-170 -6 -210 51 c-115 28 -232
56 -260 63 -51 11 -85 38 -85 66 0 8 -12 39 -26 68 -41 85 -43 84 168 84 242
-1 894 -39 950 -56 9 -3 79 -9 155 -15 76 -5 164 -12 196 -15 52 -5 57 -4 57
14 0 12 -3 23 -8 25 -4 3 -70 11 -147 17 -77 7 -141 14 -143 15 -5 4 56 126
72 145 7 8 16 22 20 30 3 8 15 30 27 49 13 21 17 37 11 43 -25 25 -74 -35
-150 -182 l-38 -75 -74 -1 c-41 -1 -102 2 -135 7 -33 4 -177 15 -320 24 -143
9 -272 18 -287 19 -16 1 -38 3 -49 4 -19 2 -21 7 -16 41 11 86 113 255 197
328 44 37 100 63 136 63 36 0 249 -72 342 -116 112 -53 229 -73 435 -74 l127
0 0 28 0 27 -178 2 c-291 4 -355 30 -390 160 -14 52 -17 83 -11 110 7 33 29
139 84 413 14 66 40 211 50 279 2 13 6 60 10 105 3 44 8 92 10 106 2 14 7 52
10 85 3 33 8 78 11 100 5 40 -19 255 -33 291 -17 46 -99 146 -186 229 -134
128 -251 235 -279 254 -13 9 -34 25 -47 36 -70 60 -114 94 -162 128 -30 21
-89 62 -131 93 -69 49 -82 55 -120 52 l-43 -3 40 -28 c22 -15 74 -50 115 -77
106 -70 190 -128 205 -143 7 -6 43 -37 81 -67 37 -30 86 -73 109 -95 22 -22
56 -53 75 -68 52 -42 240 -229 240 -239 0 -11 -26 -10 -48 1 -32 18 -236 60
-312 66 -41 2 -156 7 -255 11 -99 3 -232 9 -295 12 -63 4 -155 4 -205 -1 -90
-8 -214 -5 -605 13 -113 5 -261 12 -330 14 -69 3 -179 10 -245 15 -66 6 -232
18 -370 26 -313 19 -551 41 -725 65 -133 19 -174 23 -540 56 -255 23 -622 16
-765 -14 -55 -11 -136 -26 -180 -32 -44 -7 -110 -24 -146 -40 -36 -15 -81 -31
-100 -35 -19 -4 -38 -11 -44 -14 -5 -4 -46 -20 -90 -36 -44 -15 -84 -31 -90
-35 -5 -4 -72 -28 -147 -54 -144 -49 -186 -65 -256 -97 -24 -11 -69 -29 -100
-41 -32 -11 -61 -24 -66 -29 -6 -5 -16 -9 -23 -9 -8 0 -43 -13 -78 -30 -35
-16 -70 -30 -77 -30 -12 0 -90 -37 -158 -74 -14 -8 -68 -35 -120 -61 -130 -65
-200 -102 -213 -114 -7 -5 -32 -17 -57 -27 -42 -17 -160 -83 -222 -126 -15
-10 -32 -18 -37 -18 -13 0 -203 -112 -248 -146 -17 -13 -34 -24 -37 -24 -9 0
-111 -64 -166 -105 -30 -22 -75 -52 -100 -67 -25 -14 -62 -39 -82 -55 -20 -15
-71 -53 -114 -83 -43 -30 -89 -65 -102 -78 -13 -13 -65 -46 -115 -74 -51 -28
-105 -63 -122 -78 -55 -48 -158 -126 -235 -177 -30 -20 -84 -66 -120 -103 -36
-36 -81 -77 -100 -90 -19 -13 -48 -38 -65 -55 -16 -17 -38 -36 -48 -41 -10 -6
-39 -30 -65 -55 -26 -25 -58 -53 -71 -62 -20 -13 -399 -375 -541 -517 -54 -54
-133 -142 -171 -191 -18 -24 -55 -67 -80 -94 -25 -28 -57 -69 -71 -90 -14 -22
-33 -47 -42 -55 -18 -15 -73 -90 -75 -102 0 -5 -1 -11 -1 -15 0 -5 -11 -21
-25 -37 -14 -16 -25 -33 -25 -37 0 -4 -11 -20 -24 -36 -39 -46 -187 -329 -251
-478 -27 -64 -75 -215 -87 -275 -15 -73 -19 -280 -6 -303 8 -15 7 -18 -4 -15
-7 2 -27 44 -43 94 -17 49 -34 94 -38 101 -16 25 -16 256 0 318 9 33 19 62 24
63 5 2 9 14 9 27 0 22 14 63 46 132 8 17 14 36 14 42 0 16 120 325 166 428 13
29 26 64 30 78 3 14 9 25 13 25 4 0 8 6 8 14 0 7 18 52 41 100 23 47 42 93 42
101 0 15 20 63 71 171 16 34 29 65 29 70 1 5 9 27 20 49 11 22 19 43 20 47 0
7 38 94 75 173 48 101 94 209 151 348 35 87 70 172 78 190 40 87 81 191 111
278 18 54 44 121 58 150 14 30 42 92 62 139 20 47 41 93 46 102 5 10 9 23 9
28 0 6 20 54 45 107 25 52 45 102 45 109 0 8 4 14 8 14 5 0 23 33 41 73 18 39
45 99 61 132 15 33 31 71 35 85 4 14 31 75 60 135 28 61 62 137 75 170 13 33
33 76 45 95 12 19 30 53 40 75 41 93 106 231 115 245 6 8 18 31 28 50 9 19 20
37 23 40 4 3 19 30 35 60 15 30 34 61 42 69 8 8 24 31 37 51 13 21 36 47 52
59 15 12 39 31 53 41 l25 19 -50 0 c-47 0 -53 -3 -102 -53z m6147 -596 c96 -6
193 -13 215 -16 22 -3 72 -7 110 -10 176 -10 220 -20 268 -62 9 -8 27 -20 40
-27 12 -6 21 -17 20 -23 -2 -6 4 -9 12 -6 8 4 15 1 15 -4 0 -6 10 -14 23 -18
12 -3 55 -39 95 -78 41 -39 81 -78 90 -87 9 -8 26 -26 37 -40 12 -13 45 -44
75 -69 79 -66 190 -176 190 -189 0 -6 4 -11 8 -11 13 0 72 -55 72 -67 0 -6 57
-70 128 -142 70 -72 147 -155 172 -186 25 -31 55 -67 68 -81 12 -14 22 -28 22
-32 0 -4 23 -31 50 -61 28 -29 50 -58 50 -65 0 -6 12 -23 28 -37 49 -46 113
-129 107 -139 -3 -6 3 -10 14 -10 12 0 21 -7 21 -15 0 -8 5 -15 10 -15 6 0 10
-5 10 -11 0 -5 14 -24 30 -42 17 -18 28 -38 25 -44 -2 -7 0 -13 6 -13 20 0 48
-35 40 -49 -7 -11 -20 -10 -72 7 -35 11 -91 28 -124 37 -33 9 -69 22 -80 29
-20 12 -86 29 -160 41 -22 4 -67 15 -100 25 -64 19 -124 34 -325 80 -69 16
-146 34 -172 40 -25 6 -73 13 -105 15 -32 2 -68 6 -81 10 -23 8 -104 -8 -247
-46 -82 -22 -75 -22 -75 -9 0 6 18 30 40 54 22 24 40 46 40 49 0 5 61 100 78
122 4 6 21 28 37 50 17 22 36 46 43 54 7 7 22 31 33 53 21 40 19 72 -5 81 -15
6 -90 -13 -102 -26 -4 -4 -16 -7 -26 -7 -10 0 -18 -4 -18 -10 0 -5 -8 -10 -17
-10 -10 0 -29 -9 -43 -20 -14 -11 -31 -20 -37 -20 -7 0 -13 -4 -13 -9 0 -5
-25 -19 -55 -32 -30 -12 -55 -26 -55 -29 0 -10 -49 -30 -53 -22 -5 8 -13 57
-23 142 -11 89 -11 95 -14 95 -2 0 -8 28 -16 80 -4 22 -10 45 -14 50 -4 6 -10
30 -14 55 -4 24 -11 49 -15 55 -5 5 -11 23 -15 40 -4 16 -16 47 -26 70 -10 22
-26 64 -36 93 -10 28 -22 52 -26 52 -5 0 -8 5 -8 11 0 24 -112 146 -160 174
-10 5 -37 22 -61 37 -24 15 -66 30 -94 33 -27 4 -58 14 -68 23 -23 20 -48 72
-41 84 3 5 -4 17 -15 27 -38 33 -26 42 47 36 37 -2 146 -9 242 -15z m1323 -45
c67 -2 203 -8 302 -12 99 -4 189 -8 200 -8 11 0 23 -4 27 -10 5 -6 8 -5 8 4 0
9 6 11 18 6 9 -4 26 -9 37 -11 73 -12 168 -37 192 -49 15 -8 38 -15 51 -15 12
0 22 -4 22 -9 0 -5 9 -13 20 -16 11 -4 18 -10 15 -15 -3 -4 2 -14 11 -21 14
-12 14 -14 -3 -20 -17 -7 -17 -8 0 -8 14 -1 18 -8 17 -28 -1 -16 -1 -30 0 -33
2 -5 11 -95 11 -120 1 -25 -7 -70 -14 -76 -3 -3 -1 -14 5 -24 9 -14 8 -22 -6
-35 -12 -13 -14 -20 -6 -25 14 -9 8 -84 -9 -103 -9 -12 -8 -16 4 -21 13 -5 14
-10 4 -27 -6 -12 -9 -32 -6 -45 2 -14 1 -27 -4 -29 -4 -3 -6 -25 -5 -50 1 -24
-2 -46 -7 -48 -6 -2 -11 -22 -13 -45 -2 -22 -8 -60 -15 -84 -13 -47 -17 -72
-24 -133 -12 -106 -18 -145 -24 -145 -4 0 -8 -15 -10 -32 -6 -62 -7 -66 -20
-82 -7 -8 -10 -20 -6 -26 4 -6 1 -34 -5 -61 l-12 -50 -24 22 c-13 12 -26 30
-30 41 -3 10 -11 18 -17 18 -7 0 -21 15 -30 33 -10 19 -30 47 -45 62 -15 16
-39 49 -54 72 -15 24 -32 43 -36 43 -5 0 -22 19 -38 43 -29 42 -106 135 -156
189 -16 16 -28 32 -28 36 0 4 -26 34 -57 67 -30 33 -72 80 -92 105 -20 25 -46
53 -59 64 -13 10 -42 39 -65 64 -23 25 -54 56 -69 70 -16 14 -28 29 -28 34 0
5 -28 35 -62 66 -34 31 -102 96 -151 145 -49 48 -93 87 -98 87 -5 0 -9 5 -9
11 0 12 -100 109 -112 109 -4 0 -8 6 -8 14 0 8 -13 20 -30 28 -16 7 -30 15
-30 18 0 3 -16 14 -35 24 -19 11 -35 25 -35 33 0 10 37 12 195 9 108 -2 208 0
223 5 15 4 44 6 65 3 21 -2 93 -6 160 -9z m-2985 -91 c65 -17 177 -53 207 -65
11 -4 33 -10 49 -14 15 -3 35 -13 43 -21 8 -8 18 -12 23 -9 9 5 173 -74 178
-86 2 -4 10 -5 18 -2 7 3 17 -2 20 -11 3 -9 10 -14 15 -11 4 3 16 2 26 -3 10
-5 38 -19 63 -31 25 -11 58 -32 74 -45 l30 -23 -90 1 c-115 1 -121 -16 -16
-58 70 -28 91 -46 54 -46 -11 0 -26 -8 -36 -18 -15 -18 -12 -20 69 -57 47 -21
85 -42 85 -46 0 -5 5 -9 11 -9 6 0 24 -9 40 -21 45 -32 64 -19 83 55 30 122
120 302 182 363 7 7 21 23 31 36 34 43 97 60 218 60 100 0 116 -3 170 -28 39
-19 84 -52 128 -98 57 -57 77 -88 122 -183 62 -131 104 -265 120 -384 9 -68
12 -386 5 -490 -7 -108 -37 -344 -46 -369 -2 -8 -7 -30 -10 -50 -3 -20 -10
-40 -15 -46 -12 -12 -239 -20 -239 -8 0 4 6 28 14 53 64 199 81 308 79 500 -1
226 -74 447 -190 577 -25 28 -83 53 -123 53 -19 0 -33 6 -37 16 -6 17 23 138
41 169 7 11 18 39 25 62 8 23 27 54 42 69 34 33 36 44 9 44 -31 0 -83 -61
-104 -121 -10 -30 -23 -65 -29 -79 -5 -14 -11 -32 -13 -40 -1 -8 -10 -42 -19
-75 -36 -133 -37 -138 -65 -270 -25 -118 -22 -193 14 -365 13 -63 36 -176 50
-250 15 -74 31 -155 37 -180 16 -67 19 -81 24 -124 3 -21 7 -42 10 -45 9 -16
-15 -28 -85 -44 -267 -62 -557 -174 -642 -248 -28 -24 -58 -48 -67 -53 -9 -5
-47 -41 -86 -80 -55 -56 -82 -95 -127 -183 -32 -62 -58 -123 -58 -135 0 -13
-8 -35 -17 -48 -26 -37 -23 -173 6 -275 12 -44 26 -99 31 -122 5 -23 18 -59
30 -80 11 -21 20 -43 20 -51 0 -11 40 -116 77 -200 8 -18 16 -42 18 -53 2 -11
21 -50 42 -86 21 -36 54 -95 73 -132 19 -36 49 -86 67 -111 49 -72 110 -197
152 -312 11 -32 25 -66 30 -75 5 -10 13 -29 19 -43 5 -14 20 -49 32 -79 33
-81 27 -103 -72 -295 -11 -21 -41 -60 -67 -85 -45 -45 -104 -116 -112 -136 -2
-5 -15 -27 -29 -48 -28 -41 -48 -50 -175 -72 -120 -21 -206 -41 -243 -56 -32
-14 -52 -41 -133 -177 -32 -54 -58 -72 -107 -72 -15 0 -56 -10 -92 -22 -63
-21 -79 -22 -495 -22 -397 0 -528 4 -738 19 -122 9 -119 7 -162 137 -20 62
-48 142 -62 178 -14 36 -32 83 -41 105 -8 22 -30 73 -49 113 -18 41 -33 77
-33 81 0 7 -66 101 -100 141 -12 14 -24 30 -28 35 -15 22 -138 109 -180 127
-113 50 -430 109 -555 103 -80 -4 -94 -8 -145 -40 -75 -47 -146 -97 -200 -143
-24 -20 -48 -38 -52 -40 -5 -2 -34 23 -64 55 -170 176 -394 393 -513 496 -141
122 -171 147 -181 147 -5 0 -18 11 -28 25 -10 14 -24 25 -30 25 -6 0 -33 21
-60 46 -27 25 -84 73 -126 106 -43 33 -78 64 -78 69 0 5 -7 9 -15 9 -28 0
-104 80 -109 114 -16 106 -28 184 -45 281 -10 61 -19 119 -19 130 0 11 -3 52
-7 91 -4 40 -5 84 -1 99 7 26 9 23 42 -41 19 -38 41 -76 49 -85 8 -8 15 -19
15 -22 0 -4 17 -35 38 -69 20 -35 44 -76 52 -93 8 -16 18 -33 23 -36 15 -11
15 -50 0 -95 -12 -35 -13 -48 -4 -57 9 -9 14 -8 21 3 32 56 35 57 71 19 19
-19 45 -50 59 -69 14 -18 31 -39 38 -46 6 -7 12 -15 12 -18 0 -26 165 -166
196 -166 13 0 24 5 24 10 0 6 -26 37 -57 69 -32 32 -67 76 -79 97 -12 22 -39
73 -62 114 -22 41 -50 104 -61 140 l-21 64 22 45 c13 24 28 44 33 44 14 1 83
-140 94 -195 10 -43 33 -98 67 -158 8 -14 26 -48 41 -77 39 -77 104 -103 74
-30 -27 64 -60 163 -65 197 -3 19 -9 133 -12 253 -8 256 -15 238 121 306 86
43 112 48 126 21 12 -24 41 -122 45 -155 2 -16 13 -55 23 -85 11 -30 24 -74
30 -97 8 -27 19 -44 32 -48 32 -11 33 0 7 57 -14 30 -33 87 -43 128 -9 41 -21
86 -25 100 -40 123 -36 142 29 160 67 18 308 49 396 51 45 1 52 -2 75 -33 31
-42 128 -138 204 -203 32 -27 82 -70 111 -95 28 -25 67 -53 86 -63 33 -18 33
-19 14 -33 -11 -8 -38 -20 -60 -27 -22 -6 -71 -31 -110 -54 -38 -24 -73 -43
-78 -43 -5 0 -29 -13 -54 -30 -24 -16 -48 -30 -54 -30 -10 0 -65 -34 -220
-136 -53 -35 -100 -64 -103 -64 -4 0 -32 -19 -63 -41 -59 -44 -70 -53 -121
-99 -18 -17 -35 -30 -38 -30 -3 0 -11 -6 -19 -12 -7 -7 -42 -35 -76 -63 -100
-79 -160 -146 -153 -170 8 -27 33 -45 62 -45 13 0 31 -4 41 -10 10 -5 48 -12
86 -16 62 -6 67 -6 63 12 -2 11 -24 30 -52 44 -57 29 -65 42 -38 67 10 10 57
55 104 101 47 45 89 82 93 82 5 0 25 18 46 40 21 22 41 40 44 40 3 0 25 18 48
39 23 22 60 53 82 70 22 17 52 40 67 52 35 29 54 20 62 -30 3 -22 17 -52 31
-67 14 -15 25 -31 25 -36 0 -21 57 -91 95 -117 22 -15 77 -37 121 -48 72 -19
85 -20 142 -8 76 16 164 70 209 129 55 73 103 217 88 266 -10 32 -31 23 -41
-17 -26 -106 -182 -110 -280 -8 -42 44 -80 125 -70 150 3 8 44 33 91 56 77 37
89 40 110 29 28 -15 57 -7 49 13 -5 15 35 47 61 47 9 0 15 9 15 21 0 18 -4 20
-22 14 -13 -4 -44 -12 -70 -18 -44 -10 -49 -9 -87 17 -21 15 -51 44 -65 65
-15 21 -40 50 -56 66 -17 16 -30 33 -30 38 0 5 36 8 82 6 54 -3 82 0 85 7 6
18 -57 42 -131 49 -38 3 -76 10 -85 15 -17 8 -82 92 -85 107 -1 7 219 15 356
14 75 -1 48 53 -56 108 -65 35 -109 42 -286 44 l-114 2 -37 48 c-20 27 -47 70
-60 95 -12 26 -56 103 -97 171 -40 68 -82 145 -92 170 -10 25 -25 60 -34 76
-9 17 -16 37 -16 46 0 9 -7 22 -15 29 -8 7 -15 19 -15 27 0 8 23 -13 50 -46
28 -34 74 -78 103 -99 29 -22 58 -46 66 -55 7 -10 18 -17 23 -17 6 0 47 -24
92 -52 45 -29 95 -61 111 -70 17 -9 59 -34 95 -55 87 -51 379 -176 460 -197
36 -10 81 -22 100 -27 54 -15 216 -42 340 -56 81 -10 293 -10 380 -1 36 4 90
10 120 13 30 3 61 2 68 -3 7 -4 17 -48 23 -98 14 -115 15 -120 34 -104 12 10
15 37 15 121 0 108 0 109 24 109 12 0 36 4 52 9 16 5 57 15 91 21 34 7 64 19
67 26 4 10 -32 33 -117 75 -67 33 -130 68 -140 77 -25 22 -82 146 -97 212 -7
30 -23 79 -36 108 -13 29 -24 56 -24 60 0 11 -38 81 -76 139 -19 28 -34 56
-34 61 0 6 -4 12 -8 14 -5 2 -28 36 -51 76 -41 70 -122 184 -164 230 -11 12
-17 22 -13 22 4 0 -14 25 -39 55 -50 58 -45 68 17 41 94 -40 141 -58 228 -84
19 -6 89 -27 155 -47 157 -48 170 -52 238 -66 31 -7 57 -16 57 -21 0 -17 -84
-116 -196 -229 -121 -123 -135 -150 -89 -171 14 -6 25 -15 25 -20 0 -28 46 6
142 105 61 61 149 152 197 200 65 67 91 87 106 84 11 -3 74 -19 140 -36 126
-32 203 -39 223 -19 21 21 14 25 -50 32 -35 4 -99 16 -143 28 -44 11 -97 24
-118 28 -21 4 -40 10 -43 13 -11 11 30 58 81 92 29 19 77 57 107 83 68 63 84
70 154 77 302 31 601 81 645 108 24 15 61 2 116 -43 54 -43 86 -52 77 -22 -18
53 -63 132 -98 171 l-39 44 22 19 c13 10 39 18 59 18 35 0 35 0 16 21 -17 19
-26 20 -84 15 l-65 -7 -156 153 c-86 84 -173 166 -195 181 -111 80 -175 129
-171 133 4 4 116 -38 300 -114 20 -8 37 -19 37 -24 0 -4 7 -8 15 -8 8 0 15 -4
15 -8 0 -4 15 -13 33 -20 83 -30 225 -127 315 -216 50 -50 92 -96 92 -103 0
-14 39 -37 48 -28 11 11 -30 73 -83 126 -29 29 -72 78 -96 110 -24 31 -58 67
-76 79 -18 12 -72 61 -121 109 -71 69 -199 171 -216 171 -2 0 -18 14 -36 30
-37 35 -36 35 38 14z m-1188 -388 c63 -8 151 -20 195 -25 44 -6 116 -17 160
-26 44 -9 141 -27 215 -41 248 -46 310 -62 485 -129 39 -15 78 -29 88 -32 31
-10 13 -26 -59 -50 -84 -30 -154 -26 -319 16 -60 16 -162 41 -225 56 -111 26
-224 58 -265 75 -11 5 -69 25 -130 45 -60 21 -117 43 -125 50 -8 7 -40 20 -70
30 -30 10 -60 22 -66 26 -6 5 -13 6 -16 3 -3 -3 -9 -1 -13 5 -8 14 8 14 145
-3z m2664 -228 c11 -10 16 -18 11 -18 -4 0 1 -8 12 -17 39 -34 38 -59 -5 -147
-22 -44 -49 -101 -60 -126 -52 -121 -66 -150 -74 -150 -4 0 -8 -11 -8 -25 0
-25 15 -32 35 -17 21 14 83 119 131 219 52 111 54 111 82 18 38 -125 44 -173
44 -320 -1 -147 -3 -174 -15 -205 -3 -8 -8 -37 -11 -65 -8 -72 -10 -80 -28
-117 -10 -18 -20 -50 -23 -70 -3 -21 -10 -38 -15 -38 -6 0 -10 -6 -10 -14 0
-20 -32 -28 -73 -21 -33 6 -35 10 -42 58 -5 29 -9 54 -10 57 -1 3 -4 12 -7 20
-7 17 -47 222 -58 290 -4 25 -12 56 -17 70 -6 14 -14 50 -18 80 -4 30 -11 62
-15 71 -8 13 -24 150 -23 189 2 79 34 244 56 290 22 45 81 40 141 -12z m-1353
-93 c56 -19 89 -36 89 -46 0 -12 -222 3 -255 17 -24 10 -26 13 -9 14 11 0 24
4 30 9 8 8 37 15 85 20 9 0 36 -6 60 -14z m-1551 -100 c173 -48 404 -96 490
-100 31 -2 152 -13 205 -20 11 -1 29 -3 40 -4 18 -1 16 -5 -12 -31 -18 -17
-34 -30 -37 -30 -2 0 -27 -22 -55 -50 -59 -58 -83 -66 -137 -46 -21 8 -77 28
-124 46 -75 27 -262 114 -330 154 -14 8 -38 21 -55 29 -64 30 -135 70 -142 79
-8 14 47 4 157 -27z m-959 -53 c13 -10 57 -37 97 -61 39 -24 72 -47 72 -52 0
-5 8 -9 18 -9 9 0 35 -16 57 -35 22 -19 44 -35 48 -35 12 0 139 -89 157 -109
9 -10 26 -23 37 -30 12 -6 44 -30 70 -52 57 -49 109 -92 143 -119 14 -11 37
-30 52 -43 48 -39 307 -301 330 -334 13 -17 43 -57 67 -88 24 -30 42 -57 40
-59 -2 -2 -58 36 -124 86 -66 49 -136 100 -155 113 -94 64 -126 89 -133 101
-4 8 -14 14 -22 14 -8 0 -18 6 -22 14 -4 7 -26 26 -49 42 -69 49 -127 92 -163
121 -19 16 -44 35 -57 43 -47 32 -122 97 -199 174 -45 45 -99 97 -120 116 -73
65 -196 201 -190 210 9 14 19 12 46 -8z m5114 -457 c50 -9 104 -20 120 -25 17
-6 59 -17 95 -25 176 -41 208 -59 164 -96 -20 -17 -94 -125 -94 -138 0 -5 -4
-11 -8 -13 -11 -4 -101 -235 -108 -278 -9 -45 -21 -60 -50 -60 -22 0 -50 17
-184 111 -51 36 -127 57 -285 80 -239 33 -287 39 -356 39 -103 0 -110 7 -95
91 11 67 25 91 110 191 27 31 55 52 86 63 25 9 54 20 65 25 18 8 156 42 215
54 45 8 233 -2 325 -19z m-6125 -105 c6 -12 8 -30 5 -40 -4 -12 -2 -20 4 -20
6 0 11 -7 11 -16 0 -9 6 -28 14 -42 8 -15 20 -42 26 -59 7 -18 16 -33 20 -33
5 0 14 -17 20 -37 7 -21 31 -74 53 -118 22 -44 54 -107 70 -140 16 -33 42 -75
56 -94 14 -18 31 -41 36 -50 6 -9 12 -18 15 -21 10 -9 80 -118 86 -133 4 -11
-13 -17 -73 -26 -43 -7 -125 -21 -183 -32 -159 -29 -151 -31 -166 56 -4 22 -9
49 -11 60 -24 116 -35 482 -19 636 4 36 8 80 8 97 1 37 12 41 28 12z m-103
-350 c1 -39 6 -91 12 -118 9 -41 17 -106 36 -282 3 -25 9 -69 13 -97 l9 -53
-53 -30 c-30 -16 -56 -30 -60 -30 -3 0 -20 -11 -38 -25 -42 -32 -53 -32 -61 5
-8 37 11 241 32 340 9 41 18 87 21 103 2 15 8 30 13 33 5 3 9 15 9 28 0 12 3
26 7 29 3 4 8 21 10 39 2 18 8 37 13 42 6 6 10 18 10 28 0 13 20 58 25 58 1 0
1 -32 2 -70z m5716 -8 c19 -8 34 -27 47 -59 11 -27 24 -56 30 -65 5 -10 10
-23 10 -30 1 -15 46 -108 78 -160 l23 -37 -29 10 c-17 6 -38 19 -48 30 -9 10
-23 19 -29 19 -7 0 -24 9 -38 20 -14 11 -32 20 -41 20 -31 0 -15 -25 35 -55
28 -16 83 -55 124 -85 40 -30 110 -80 155 -110 45 -30 87 -60 93 -65 7 -6 36
-25 65 -43 29 -18 93 -65 141 -105 49 -39 117 -94 151 -122 35 -27 72 -58 84
-67 11 -10 57 -46 101 -80 43 -35 88 -72 100 -84 32 -31 91 -117 120 -173 15
-27 30 -51 33 -53 4 -2 16 -19 27 -40 30 -55 102 -183 157 -279 59 -104 65
-137 58 -329 l-5 -145 -49 3 c-27 1 -92 12 -145 24 -79 18 -136 22 -316 25
-121 2 -223 7 -227 11 -5 6 -23 82 -42 182 -14 76 -27 118 -87 278 -28 74 -60
133 -114 212 -42 59 -79 110 -83 112 -7 3 -57 65 -82 102 -16 25 -73 95 -104
128 -24 27 -137 167 -156 194 -93 134 -437 496 -605 637 -62 51 -165 157 -165
169 0 3 28 9 63 12 34 3 78 8 97 10 77 9 546 -1 573 -12z m160 -18 c62 -9 169
-31 199 -43 15 -5 64 -35 110 -65 76 -50 86 -60 113 -118 33 -72 34 -75 44
-143 4 -27 22 -90 40 -140 35 -96 62 -197 55 -204 -2 -3 -17 5 -32 17 -32 25
-275 192 -300 207 -10 6 -45 30 -79 55 -55 41 -65 54 -116 160 -31 63 -64 135
-72 160 -9 24 -25 60 -35 78 -27 45 -25 56 6 48 14 -4 45 -9 67 -12z m-6380
-473 c2 -10 3 -35 2 -55 -2 -20 1 -36 6 -36 5 0 9 -7 9 -15 0 -8 6 -29 14 -47
31 -76 116 -296 116 -303 0 -4 -16 -25 -35 -46 l-34 -38 -11 37 c-25 86 -53
233 -59 312 -3 47 -10 92 -16 100 -5 8 -9 36 -10 62 0 49 9 63 18 29z m-875
-369 c-3 -12 2 -24 13 -31 11 -6 18 -14 17 -19 -4 -10 22 -123 33 -147 5 -11
11 -38 14 -60 2 -22 5 -42 6 -45 1 -3 1 -9 0 -14 -1 -4 3 -14 9 -21 6 -7 8
-20 4 -29 -3 -9 -1 -16 5 -16 6 0 11 -18 11 -42 0 -24 7 -83 15 -133 9 -49 22
-131 30 -182 17 -108 43 -451 44 -572 0 -46 4 -88 10 -94 17 -17 39 10 46 56
4 23 11 48 15 57 7 13 32 120 61 260 12 57 30 182 35 240 10 133 17 168 30
163 19 -7 18 7 -2 21 -12 9 -13 17 -4 40 l10 28 20 -25 c11 -14 20 -30 20 -36
0 -7 7 -14 16 -18 8 -3 13 -12 10 -19 -3 -8 1 -14 9 -14 8 0 15 -6 15 -14 0
-8 7 -17 16 -20 9 -4 15 -9 12 -12 -3 -2 19 -30 48 -60 30 -30 54 -59 54 -65
0 -6 5 -7 10 -4 16 10 12 -27 -6 -60 -27 -49 -22 -157 11 -230 40 -92 43 -97
91 -160 24 -33 44 -65 44 -72 0 -7 4 -13 8 -13 4 0 15 -12 24 -27 9 -16 38
-50 66 -78 27 -27 54 -60 61 -72 6 -12 33 -37 59 -54 52 -36 92 -75 92 -90 0
-5 4 -9 9 -9 5 0 51 -40 102 -90 50 -49 98 -90 105 -90 7 0 14 -4 16 -8 2 -4
42 -34 91 -65 48 -32 87 -63 87 -69 0 -6 -13 -23 -29 -39 -16 -15 -27 -30 -23
-33 3 -3 0 -6 -6 -6 -7 0 -12 -5 -12 -10 0 -6 -22 -31 -48 -58 -27 -26 -66
-69 -87 -97 -20 -27 -40 -52 -44 -55 -3 -3 -17 -21 -31 -40 -13 -19 -28 -39
-32 -45 -54 -66 -138 -188 -138 -199 0 -8 -4 -17 -8 -20 -5 -3 -14 -30 -21
-60 -10 -44 -9 -75 3 -169 8 -63 22 -132 30 -153 8 -22 22 -75 32 -119 9 -44
20 -84 24 -90 4 -5 11 -26 15 -45 4 -19 18 -51 31 -72 13 -21 24 -42 24 -47 0
-6 9 -28 21 -50 25 -49 20 -68 -32 -123 -21 -23 -39 -45 -39 -50 0 -5 -4 -6
-10 -3 -5 3 -10 0 -10 -8 0 -8 -22 -37 -48 -64 -27 -28 -62 -72 -78 -97 -16
-25 -35 -46 -41 -46 -7 0 -13 -8 -13 -18 0 -11 -9 -27 -20 -37 -11 -10 -20
-24 -20 -32 0 -7 -4 -13 -10 -13 -5 0 -10 -6 -10 -14 0 -7 -6 -19 -13 -25 -29
-23 -52 -184 -62 -431 -10 -252 -14 -279 -51 -320 -24 -26 -53 -44 -97 -59
-35 -11 -68 -21 -74 -21 -8 0 -12 40 -13 118 -2 124 -3 169 -15 407 -4 83 -8
198 -8 257 -1 58 -5 104 -10 101 -4 -2 -7 0 -7 6 0 5 5 11 11 13 9 3 9 9 1 24
-6 12 -11 76 -12 145 0 155 -16 233 -48 237 -21 3 -22 0 -23 -70 -1 -40 0 -77
1 -83 2 -10 5 -58 15 -310 3 -71 8 -166 11 -210 5 -77 7 -123 21 -442 5 -140
1 -193 -16 -193 -5 0 -28 24 -51 53 -22 28 -46 59 -53 67 -7 8 -23 31 -37 50
-13 19 -29 40 -35 47 -5 6 -30 34 -55 62 -25 28 -82 89 -127 136 -46 46 -83
88 -83 93 0 5 -17 24 -37 44 -70 65 -118 123 -144 173 -32 62 -53 164 -40 196
36 93 49 119 78 162 18 26 33 49 33 52 0 3 5 11 10 18 6 7 24 33 41 59 16 25
51 69 77 96 26 27 63 69 82 93 19 23 44 49 54 58 10 9 28 27 40 40 12 13 33
37 48 53 41 42 108 133 108 146 0 6 6 17 13 24 19 20 64 118 78 168 7 25 16
49 21 54 4 6 8 24 8 41 0 17 4 35 9 41 11 12 -4 123 -28 212 -7 24 -9 52 -6
63 4 11 2 26 -4 33 -6 7 -13 26 -15 42 -2 16 -6 36 -9 44 -3 8 -11 38 -17 65
-24 107 -28 121 -38 145 -11 24 -32 97 -38 130 -4 22 -25 103 -31 120 -3 8 -8
23 -10 34 -2 10 -15 46 -29 80 -14 33 -32 84 -41 111 -8 28 -19 59 -24 70 -5
11 -16 43 -25 70 -9 28 -22 57 -29 65 -8 8 -14 20 -15 25 -2 21 -21 91 -29
105 -4 8 -14 36 -22 63 -7 26 -17 47 -21 47 -4 0 -8 9 -8 20 0 11 -9 34 -20
52 -11 18 -20 42 -20 53 0 11 -7 28 -15 39 -8 10 -24 51 -36 90 -12 39 -25 76
-30 82 -5 6 -10 19 -12 30 -2 10 -8 28 -14 39 -13 25 -50 149 -57 196 -6 32
21 203 43 284 5 17 15 63 22 103 6 39 17 72 22 72 5 0 7 9 4 21 -3 11 1 39 9
61 8 22 14 53 14 68 0 25 7 40 18 40 2 0 2 -8 0 -18z m-823 -325 c1 -47 5 -89
8 -93 2 -5 8 -29 12 -54 4 -25 10 -49 14 -55 3 -5 7 -21 8 -35 5 -70 17 -141
24 -146 5 -3 9 -18 9 -33 0 -15 5 -32 10 -37 6 -6 12 -19 15 -30 12 -51 56
-191 65 -206 5 -10 10 -24 10 -32 0 -8 4 -16 8 -18 4 -1 21 -29 37 -61 17 -32
40 -78 52 -103 13 -24 27 -44 33 -44 5 0 10 -7 10 -15 0 -8 5 -15 11 -15 6 0
9 -6 6 -14 -3 -8 -3 -16 1 -18 4 -2 18 -25 32 -51 14 -26 44 -71 68 -100 44
-55 87 -133 85 -155 0 -7 1 -11 4 -8 3 3 15 -4 26 -15 21 -19 21 -19 29 1 4
11 5 62 1 113 -9 134 -5 240 10 265 5 7 4 12 -2 12 -13 0 -7 65 16 205 9 50
16 101 18 115 1 14 4 32 7 40 11 28 28 110 26 121 -2 6 3 14 10 16 6 3 12 -2
12 -11 0 -14 12 -45 43 -113 5 -12 10 -30 11 -40 1 -10 9 -34 18 -53 50 -107
116 -272 152 -380 13 -41 39 -113 56 -160 17 -47 38 -105 47 -130 8 -25 26
-73 39 -107 13 -34 24 -71 24 -82 0 -11 4 -22 9 -25 5 -3 12 -27 16 -53 4 -27
10 -52 13 -58 4 -5 7 -14 9 -20 10 -42 66 -260 78 -300 18 -61 29 -108 27
-116 0 -3 5 -29 13 -57 13 -52 8 -65 -15 -37 -7 8 -17 15 -22 15 -11 0 -112
68 -183 123 -16 13 -59 38 -95 57 -36 18 -83 45 -105 60 -22 15 -125 71 -230
125 -104 53 -194 101 -200 106 -5 5 -17 9 -28 9 -10 0 -16 4 -13 8 3 5 -11 14
-30 21 -18 7 -34 17 -34 22 0 5 -9 9 -20 9 -11 0 -20 5 -20 10 0 6 -8 10 -18
10 -9 0 -29 11 -44 25 -15 14 -34 25 -43 25 -8 0 -15 5 -15 10 0 6 -7 10 -15
10 -8 0 -23 4 -33 9 -26 15 -56 24 -66 22 -5 -1 -16 4 -25 11 -18 14 -52 34
-94 56 -16 8 -31 20 -34 27 -2 8 -11 11 -19 8 -8 -3 -22 2 -32 10 -9 9 -20 16
-25 16 -24 2 -57 14 -57 22 0 5 -7 9 -15 9 -8 0 -15 5 -15 10 0 6 -7 10 -15
10 -8 0 -15 4 -15 10 0 5 -6 7 -13 4 -8 -3 -29 9 -46 26 -18 16 -37 30 -41 30
-18 0 -32 99 -32 220 0 147 4 196 17 222 7 16 9 25 3 22 -6 -4 -8 1 -5 12 3
11 8 36 12 57 9 54 26 87 44 87 14 0 14 2 1 10 -12 8 -12 14 4 47 10 21 17 38
15 38 -1 0 4 11 11 25 8 14 14 27 15 30 1 12 69 137 84 155 14 16 50 84 56
105 1 3 7 17 13 33 7 15 16 38 22 52 5 14 14 25 20 25 5 0 10 7 10 15 0 9 6
18 14 21 8 3 17 16 20 30 4 13 11 24 16 24 6 0 10 6 10 14 0 8 7 16 15 20 8 3
15 15 15 26 0 11 7 23 15 26 8 4 15 12 15 19 0 12 21 26 28 19 2 -1 5 -41 7
-87z m3176 -76 c31 -31 71 -68 88 -84 37 -32 37 -36 10 -71 -26 -33 -43 -33
-86 2 -66 52 -193 176 -193 187 0 7 14 19 31 28 45 21 80 6 150 -62z m6140
-149 c58 -60 120 -129 137 -153 17 -24 47 -62 67 -84 19 -22 39 -45 43 -50 4
-6 23 -29 42 -51 64 -75 70 -84 80 -127 21 -92 3 -397 -24 -397 -6 0 -24 16
-39 35 -18 22 -56 48 -107 72 -43 20 -83 46 -89 57 -5 12 -12 104 -14 206 l-3
185 -48 90 c-26 50 -53 97 -60 105 -6 8 -22 35 -35 60 -13 25 -29 52 -36 60
-16 21 -55 98 -55 111 0 20 36 -11 141 -119z m-5838 -2 c-3 -11 -12 -20 -19
-20 -8 0 -14 9 -14 20 0 13 7 20 19 20 14 0 18 -5 14 -20z m-33 -47 c-1 -22
-23 -53 -39 -53 -7 0 -10 -4 -6 -9 8 -14 -62 -64 -80 -57 -8 3 -15 2 -15 -3 0
-13 -98 -29 -133 -21 l-32 6 45 22 c25 12 53 27 62 34 15 10 22 10 39 0 12 -8
18 -9 14 -3 -3 6 0 11 7 11 8 0 25 8 38 17 14 10 34 17 45 16 11 -2 14 0 8 3
-18 8 -16 24 2 24 9 0 18 7 21 15 8 21 24 19 24 -2z m-1896 -309 c59 -48 151
-117 204 -151 28 -18 52 -38 52 -43 0 -6 -15 -10 -33 -10 -30 0 -115 -12 -174
-25 -15 -4 -23 -13 -23 -27 0 -20 3 -21 69 -14 l68 6 29 -43 c72 -108 302
-308 473 -412 9 -6 49 -31 89 -58 40 -26 74 -47 76 -47 3 0 36 -18 75 -41 60
-34 69 -43 61 -58 -16 -31 -132 -131 -152 -131 -20 0 -77 33 -154 92 -28 21
-55 38 -59 38 -9 0 -146 128 -313 290 -54 52 -122 129 -152 170 -30 41 -60 80
-66 85 -14 13 -88 127 -91 140 -1 6 -11 36 -23 68 -26 73 -29 149 -7 185 11
17 15 16 51 -14z m407 -287 c19 -12 64 -38 102 -56 37 -18 67 -37 67 -42 0 -5
12 -12 27 -15 15 -4 53 -19 83 -34 30 -15 83 -40 118 -55 34 -16 62 -32 62
-36 0 -4 11 -10 24 -13 13 -3 26 -13 30 -21 7 -20 -2 -19 -55 4 -24 10 -69 22
-99 26 -30 4 -59 10 -65 13 -5 3 -41 7 -80 9 -174 8 -172 7 -256 91 -76 77
-119 129 -119 142 0 4 28 8 63 9 52 1 70 -3 98 -22z m399 -308 c30 -6 78 -21
105 -34 28 -13 59 -26 71 -29 22 -7 93 -56 80 -56 -4 0 6 -12 23 -26 35 -30
40 -60 11 -69 -11 -3 -20 -11 -20 -16 0 -5 -7 -9 -15 -9 -9 0 -18 -7 -22 -16
-4 -11 -13 -14 -32 -9 -14 4 -28 10 -31 14 -3 4 -30 19 -60 34 -129 64 -250
136 -250 148 0 5 -6 9 -12 9 -22 0 -103 79 -87 84 32 11 67 11 124 -1 33 -7
85 -18 115 -24z m4280 -225 c-18 -21 -24 -10 -8 15 7 12 14 17 16 11 2 -6 -2
-17 -8 -26z m-4144 -420 c0 -222 10 -280 54 -335 46 -57 117 -217 131 -292 10
-53 10 -93 1 -185 -15 -153 -20 -208 -33 -442 -6 -107 -14 -226 -19 -265 -11
-103 -11 -452 0 -509 11 -56 90 -197 123 -219 12 -8 33 -25 47 -37 14 -12 55
-42 93 -67 37 -24 67 -49 67 -55 0 -8 -115 -184 -130 -198 -15 -14 -77 -97
-87 -117 -23 -44 -34 -135 -38 -304 -4 -171 -10 -202 -37 -180 -25 22 -83 60
-116 77 -44 23 -208 200 -254 276 -43 70 -62 131 -77 243 -21 157 -20 190 19
715 6 74 12 164 15 200 29 401 36 490 40 520 3 19 9 100 15 180 9 148 35 316
71 474 11 48 18 91 15 93 -3 3 -12 3 -20 0 -16 -6 -26 -39 -51 -162 -27 -133
-32 -156 -38 -162 -15 -14 -83 175 -92 252 -3 33 -9 83 -13 110 -4 28 -7 100
-7 160 l0 110 43 55 c62 79 254 271 267 267 6 -2 10 -73 11 -203z m-1878 -68
c241 -120 529 -295 555 -338 7 -10 17 -18 24 -18 7 0 28 -16 47 -35 47 -46 53
-95 27 -197 -21 -79 -107 -268 -138 -303 -10 -11 -31 -39 -47 -62 -15 -23 -68
-82 -118 -130 -171 -169 -342 -411 -392 -556 l-14 -42 -12 30 c-38 92 -65 269
-77 495 -12 255 -5 1220 10 1220 4 0 65 -29 135 -64z m1506 -178 c3 -18 8 -64
11 -103 8 -89 9 -100 34 -215 25 -113 36 -147 69 -219 21 -47 24 -70 25 -165
1 -61 -5 -172 -12 -246 -7 -74 -15 -164 -18 -200 -3 -36 -7 -67 -10 -70 -11
-12 -42 24 -85 101 -117 211 -178 349 -178 406 0 11 -12 52 -26 89 -21 55 -27
92 -32 185 -6 156 0 193 51 270 67 104 141 199 154 199 7 0 14 -15 17 -32z
m3196 -157 l35 -7 -80 -43 c-44 -23 -87 -47 -95 -52 -39 -25 -97 -49 -120 -49
-14 0 -39 13 -56 28 -46 40 -106 87 -115 90 -5 2 -9 10 -9 17 0 28 328 40 440
16z m-4617 -1620 c62 -75 65 -89 42 -167 -8 -27 -23 -94 -34 -150 -11 -55 -48
-208 -82 -340 -83 -322 -83 -320 -75 -339 5 -14 9 -15 20 -5 8 6 14 19 14 28
0 9 14 64 32 122 17 58 45 155 61 215 16 61 36 133 44 160 8 28 18 70 21 95 4
25 13 68 20 95 8 28 19 71 25 98 6 26 16 47 24 47 15 0 206 -200 201 -209 -3
-3 29 -44 70 -90 63 -72 134 -169 197 -272 23 -39 45 -125 52 -204 5 -62 1
-109 -19 -195 -77 -338 -108 -460 -131 -521 -13 -32 -26 -76 -30 -99 -4 -23
-13 -54 -21 -68 -8 -15 -14 -33 -14 -40 0 -28 -156 -352 -202 -419 -15 -23
-28 -45 -28 -50 0 -10 -69 -114 -85 -128 -7 -5 -33 -44 -60 -85 -26 -41 -52
-79 -59 -85 -6 -5 -29 -32 -50 -60 -54 -68 -137 -145 -157 -145 -26 0 -35 19
-48 100 -7 41 -15 86 -17 100 -3 14 -6 36 -8 50 -2 14 -6 41 -10 60 -4 19 -8
46 -10 60 -1 14 -6 32 -11 40 -5 8 -4 15 2 17 5 2 8 26 5 57 -3 32 1 62 9 77
17 32 19 254 3 389 -29 246 -34 287 -44 320 -5 19 -10 48 -10 63 0 16 -6 41
-14 55 -8 15 -29 74 -46 132 -18 58 -41 125 -52 150 -10 25 -24 56 -30 70 -6
14 -14 32 -19 40 -5 8 -14 26 -20 40 -6 14 -21 39 -35 57 -13 17 -24 36 -24
42 0 6 -4 11 -9 11 -11 0 -22 53 -13 60 4 3 16 21 26 40 11 19 47 71 81 115
34 44 78 107 99 140 22 33 46 71 56 85 18 27 58 99 111 200 19 36 57 100 86
143 28 43 62 98 73 123 12 24 25 44 29 44 4 0 33 -31 64 -69z m-1321 -698 c-3
-16 -7 -22 -10 -15 -4 13 4 42 11 42 2 0 2 -12 -1 -27z m-27 -24 c-10 -15 -25
-10 -19 6 4 8 10 12 15 9 5 -3 7 -10 4 -15z m25 -29 c0 -5 -5 -10 -11 -10 -5
0 -7 5 -4 10 3 6 8 10 11 10 2 0 4 -4 4 -10z m-5 -40 c17 -19 17 -19 -8 -7
-14 6 -23 15 -21 19 7 11 9 10 29 -12z m-25 -71 c0 -6 -4 -7 -10 -4 -5 3 -10
11 -10 16 0 6 5 7 10 4 6 -3 10 -11 10 -16z m-10 -70 c0 -16 -4 -29 -9 -29 -5
0 -9 10 -8 23 0 12 -4 31 -8 42 -8 18 -7 19 8 6 9 -7 17 -26 17 -42z m60 -12
c0 -16 -18 3 -23 25 -6 22 -5 22 8 4 8 -11 15 -24 15 -29z m-43 -54 c-8 -9
-20 -12 -26 -9 -19 12 -12 21 15 23 24 1 25 -1 11 -14z m200 -1365 c-3 -8 -6
-5 -6 6 -1 11 2 17 5 13 3 -3 4 -12 1 -19z m28 12 c3 -5 1 -10 -4 -10 -6 0
-11 5 -11 10 0 6 2 10 4 10 3 0 8 -4 11 -10z m-85 -10 c0 -13 -11 -13 -30 0
-12 8 -11 10 8 10 12 0 22 -4 22 -10z m-110 -4 c0 -3 -4 -8 -10 -11 -5 -3 -10
-1 -10 4 0 6 5 11 10 11 6 0 10 -2 10 -4z m140 -16 c0 -5 -2 -10 -4 -10 -3 0
-8 5 -11 10 -3 6 -1 10 4 10 6 0 11 -4 11 -10z m-90 -4 c0 -3 -4 -8 -10 -11
-5 -3 -10 -1 -10 4 0 6 5 11 10 11 6 0 10 -2 10 -4z m56 -10 c18 7 18 6 -1
-13 -15 -15 -21 -16 -23 -6 -2 7 -8 13 -13 13 -5 0 -9 5 -9 11 0 8 4 8 14 0 7
-6 22 -8 32 -5z m82 -21 c-3 -3 -9 2 -12 12 -6 14 -5 15 5 6 7 -7 10 -15 7
-18z m-68 -25 c0 -5 -2 -10 -4 -10 -3 0 -8 5 -11 10 -3 6 -1 10 4 10 6 0 11
-4 11 -10z m174 -5 c-10 -8 -23 -15 -28 -15 -6 0 -1 7 10 15 10 8 23 15 28 15
6 0 1 -7 -10 -15z m-244 -26 c0 -6 -4 -7 -10 -4 -5 3 -10 11 -10 16 0 6 5 7
10 4 6 -3 10 -11 10 -16z m190 11 c0 -5 -2 -10 -4 -10 -3 0 -8 5 -11 10 -3 6
-1 10 4 10 6 0 11 -4 11 -10z m-44 -37 c-11 -11 -19 6 -11 24 8 17 8 17 12 0
3 -10 2 -21 -1 -24z m68 12 c3 -8 1 -15 -4 -15 -6 0 -10 7 -10 15 0 8 2 15 4
15 2 0 6 -7 10 -15z m64 -10 c-3 -3 -9 2 -12 12 -6 14 -5 15 5 6 7 -7 10 -15
7 -18z m-106 -7 c-7 -7 -12 -8 -12 -2 0 14 12 26 19 19 2 -3 -1 -11 -7 -17z
m-94 -23 c-3 -3 -9 2 -12 12 -6 14 -5 15 5 6 7 -7 10 -15 7 -18z m282 16 c0
-6 -4 -13 -10 -16 -5 -3 -10 1 -10 9 0 9 5 16 10 16 6 0 10 -4 10 -9z m-100
-15 c0 -3 -4 -8 -10 -11 -5 -3 -10 -1 -10 4 0 6 5 11 10 11 6 0 10 -2 10 -4z
m-83 -31 c0 -9 -10 -15 -24 -15 -12 0 -23 4 -23 10 0 5 7 7 15 4 8 -4 15 -1
15 5 0 6 4 11 8 11 5 0 9 -7 9 -15z m148 5 c3 -6 -1 -7 -9 -4 -18 7 -21 14 -7
14 6 0 13 -4 16 -10z m-225 -30 c0 -5 -2 -10 -4 -10 -3 0 -8 5 -11 10 -3 6 -1
10 4 10 6 0 11 -4 11 -10z m247 -12 c-3 -8 -6 -5 -6 6 -1 11 2 17 5 13 3 -3 4
-12 1 -19z m-67 2 c0 -5 -7 -10 -16 -10 -8 0 -12 5 -9 10 3 6 10 10 16 10 5 0
9 -4 9 -10z m-88 -32 c-8 -8 -9 -4 -5 13 4 13 8 18 11 10 2 -7 -1 -18 -6 -23z
m-47 2 c3 -5 1 -10 -4 -10 -6 0 -11 5 -11 10 0 6 2 10 4 10 3 0 8 -4 11 -10z
m-208 -32 c-3 -7 -5 -2 -5 12 0 14 2 19 5 13 2 -7 2 -19 0 -25z m278 12 c-3
-5 -11 -10 -16 -10 -6 0 -7 5 -4 10 3 6 11 10 16 10 6 0 7 -4 4 -10z m142 4
c-3 -3 -12 -4 -19 -1 -8 3 -5 6 6 6 11 1 17 -2 13 -5z m-452 -14 c-3 -5 -11
-10 -16 -10 -6 0 -7 5 -4 10 3 6 11 10 16 10 6 0 7 -4 4 -10z m465 -10 c0 -5
-2 -10 -4 -10 -3 0 -8 5 -11 10 -3 6 -1 10 4 10 6 0 11 -4 11 -10z m-458 -40
c-5 -38 -18 -40 -16 -2 3 33 2 32 12 32 5 0 7 -13 4 -30z m498 20 c0 -5 -4
-10 -10 -10 -5 0 -10 5 -10 10 0 6 5 10 10 10 6 0 10 -4 10 -10z m-450 -4 c0
-3 -4 -8 -10 -11 -5 -3 -10 -1 -10 4 0 6 5 11 10 11 6 0 10 -2 10 -4z m373
-35 c-4 -16 -8 -19 -14 -10 -4 7 -3 19 3 26 14 18 19 12 11 -16z m91 -27 c3
-8 2 -12 -4 -9 -6 3 -10 10 -10 16 0 14 7 11 14 -7z m-451 -56 c-9 -21 -10
-20 -11 11 0 25 2 31 10 23 8 -8 8 -18 1 -34z m44 18 c-3 -8 -1 -17 6 -20 7
-2 4 -5 -5 -5 -18 -1 -24 19 -11 32 11 11 15 8 10 -7z m413 -16 c0 -5 -5 -10
-11 -10 -5 0 -7 5 -4 10 3 6 8 10 11 10 2 0 4 -4 4 -10z m-349 -51 c-9 -22
-10 -22 -10 -3 -1 11 2 24 6 27 12 12 14 0 4 -24z m-34 -41 c-3 -8 -6 -5 -6 6
-1 11 2 17 5 13 3 -3 4 -12 1 -19z m193 -163 c0 -5 -5 -3 -10 5 -5 8 -10 20
-10 25 0 6 5 3 10 -5 5 -8 10 -19 10 -25z m-43 -7 c-3 -8 -6 -5 -6 6 -1 11 2
17 5 13 3 -3 4 -12 1 -19z m-297 2 c0 -5 -2 -10 -4 -10 -3 0 -8 5 -11 10 -3 6
-1 10 4 10 6 0 11 -4 11 -10z m447 -22 c-3 -7 -5 -2 -5 12 0 14 2 19 5 13 2
-7 2 -19 0 -25z m-92 -18 c3 -5 1 -10 -4 -10 -6 0 -11 5 -11 10 0 6 2 10 4 10
3 0 8 -4 11 -10z m-315 -24 c0 -9 -7 -12 -21 -9 -16 4 -17 8 -7 14 19 13 28
11 28 -5z m381 -9 c-1 -12 -15 -9 -19 4 -3 6 1 10 8 8 6 -3 11 -8 11 -12z
m-350 -30 c-13 -13 -26 -3 -16 12 3 6 11 8 17 5 6 -4 6 -10 -1 -17z m399 -7
c0 -5 -4 -10 -10 -10 -5 0 -10 5 -10 10 0 6 5 10 10 10 6 0 10 -4 10 -10z
m-460 -10 c0 -5 -4 -10 -10 -10 -5 0 -10 5 -10 10 0 6 5 10 10 10 6 0 10 -4
10 -10z"/>
<path d="M10100 10021 c0 -14 9 -17 55 -24 l40 -6 -35 12 c-19 7 -41 16 -47
20 -8 5 -13 4 -13 -2z"/>
<path d="M10210 9980 c0 -5 7 -10 16 -10 8 0 12 5 9 10 -3 6 -10 10 -16 10 -5
0 -9 -4 -9 -10z"/>
<path d="M10218 9933 c7 -3 16 -2 19 1 4 3 -2 6 -13 5 -11 0 -14 -3 -6 -6z"/>
<path d="M10245 9890 c-3 -5 1 -10 10 -10 9 0 13 5 10 10 -3 6 -8 10 -10 10
-2 0 -7 -4 -10 -10z"/>
<path d="M10110 9706 c0 -2 7 -7 16 -10 8 -3 12 -2 9 4 -6 10 -25 14 -25 6z"/>
<path d="M6985 9012 c-6 -5 -26 -14 -45 -21 -40 -15 -49 -18 -145 -57 -64 -25
-326 -156 -378 -188 -12 -8 -53 -34 -92 -58 -38 -25 -86 -53 -105 -64 -39 -21
-183 -127 -215 -157 -11 -10 -69 -58 -130 -105 -60 -48 -122 -98 -136 -112
-14 -14 -44 -42 -67 -62 -45 -39 -51 -53 -28 -61 9 -4 39 16 75 48 94 84 96
84 126 25 53 -105 120 -157 237 -185 118 -28 187 -17 278 46 66 45 85 64 123
121 34 53 37 64 36 125 0 67 0 68 -17 43 -40 -59 -61 -70 -134 -70 -111 0
-153 26 -209 129 -40 74 -38 93 14 134 55 44 158 107 176 107 8 0 29 -11 47
-25 18 -14 37 -25 43 -25 15 0 13 21 -4 44 -21 28 -18 53 8 68 77 43 233 118
246 118 9 0 78 21 154 46 76 25 145 43 153 40 10 -4 14 -22 14 -58 0 -57 13
-89 29 -73 16 17 51 136 51 175 0 20 -5 41 -12 48 -14 14 -79 16 -93 4z m-887
-602 c101 -107 124 -149 102 -189 -6 -12 -18 -21 -28 -21 -20 0 -182 159 -182
179 0 16 48 71 62 71 5 0 25 -18 46 -40z m321 -245 c-13 -19 -44 -44 -69 -56
-25 -12 -47 -26 -50 -30 -3 -5 -30 -14 -59 -22 -40 -10 -60 -11 -77 -3 -13 6
-24 13 -24 16 1 12 82 71 93 67 15 -5 79 26 96 47 8 9 20 16 28 16 8 0 11 5 8
10 -3 6 4 10 17 10 13 0 30 5 38 10 25 16 24 -27 -1 -65z"/>
<path d="M5564 8572 c-12 -10 -29 -42 -39 -72 -10 -30 -22 -60 -27 -66 -10
-13 5 -58 23 -69 15 -10 26 10 35 60 3 22 15 59 25 82 19 43 25 83 12 83 -5
-1 -17 -9 -29 -18z"/>
<path d="M6957 8530 c-10 -16 -23 -35 -30 -42 -7 -7 -21 -29 -31 -48 -11 -19
-22 -37 -26 -40 -3 -3 -17 -21 -30 -40 -13 -19 -42 -56 -64 -82 -23 -26 -63
-75 -91 -109 -123 -151 -150 -175 -228 -197 -91 -27 -193 -39 -377 -47 -152
-6 -180 -10 -180 -26 0 -10 34 -12 205 -10 166 2 247 10 335 33 90 23 114 38
169 101 22 26 61 66 86 89 25 23 45 46 45 53 0 6 14 24 30 40 17 16 30 35 30
42 0 7 3 13 8 13 4 0 18 17 32 37 14 21 37 51 51 68 14 16 34 46 45 65 10 19
29 48 42 63 24 31 29 67 9 67 -7 0 -21 -13 -30 -30z"/>
<path d="M4076 7791 c-10 -15 3 -34 46 -68 42 -34 88 -44 88 -19 0 18 -92 96
-113 96 -9 0 -18 -4 -21 -9z"/>
<path d="M4333 6883 c-7 -3 -13 -10 -13 -17 0 -24 -121 -232 -157 -271 -21
-22 -52 -58 -69 -80 -30 -40 -155 -164 -178 -177 -7 -4 -102 -10 -212 -13
-262 -8 -331 -16 -318 -36 6 -10 480 -5 521 4 37 9 97 55 148 114 28 31 69 76
92 100 66 67 122 154 188 290 33 69 32 98 -2 86z"/>
<path d="M5200 6746 c0 -37 26 -102 62 -154 18 -26 38 -56 43 -66 6 -11 21
-28 35 -38 22 -16 34 -18 83 -10 45 7 62 15 79 38 34 42 48 73 48 104 0 56
-54 78 -158 66 -107 -13 -105 -13 -121 18 -36 66 -71 88 -71 42z m250 -141 c0
-8 5 -15 10 -15 16 0 12 -22 -7 -36 -28 -21 -59 -16 -76 10 -18 27 -13 36 19
36 13 0 26 5 29 10 9 15 25 12 25 -5z"/>
<path d="M6465 6006 c-33 -12 -100 -36 -150 -51 -93 -30 -118 -39 -223 -88
-69 -31 -116 -81 -167 -180 -22 -42 -27 -59 -18 -68 16 -16 43 2 68 47 54 100
66 111 180 167 61 30 166 74 234 97 125 43 191 74 191 91 0 16 -53 9 -115 -15z"/>
<path d="M10268 8299 c-10 -5 -18 -15 -18 -21 0 -5 -17 -31 -37 -57 -62 -76
-83 -109 -83 -131 0 -30 25 -24 49 13 39 60 72 102 113 144 40 40 43 63 10 63
-9 0 -25 -5 -34 -11z"/>
<path d="M7170 5176 c0 -18 34 -112 65 -181 53 -118 65 -148 141 -360 14 -38
45 -119 68 -180 24 -60 55 -148 70 -195 15 -47 37 -110 50 -140 13 -30 32 -75
42 -100 22 -56 44 -84 57 -71 5 5 -10 57 -38 132 -26 68 -61 169 -77 224 -16
55 -36 111 -43 125 -20 38 -52 120 -91 233 -20 56 -50 134 -66 172 -17 39 -41
100 -54 137 -13 37 -35 91 -48 120 -13 29 -26 62 -28 73 -4 24 -48 34 -48 11z"/>
<path d="M6674 4956 c-3 -9 4 -27 15 -42 12 -15 21 -31 21 -36 0 -11 32 -55
112 -155 32 -39 58 -74 58 -78 0 -6 38 -67 129 -205 46 -70 78 -126 97 -170 8
-19 20 -44 26 -55 6 -11 30 -56 53 -100 22 -44 53 -99 68 -122 15 -24 27 -49
27 -57 0 -8 4 -17 9 -20 8 -5 108 -167 166 -270 36 -64 92 -132 101 -123 9 9
-89 201 -166 327 -5 8 -26 44 -46 80 -20 36 -51 90 -69 120 -51 87 -109 200
-135 263 -12 32 -28 64 -34 71 -17 18 -96 134 -96 141 0 9 -151 228 -176 256
-13 14 -24 30 -24 36 0 6 -3 13 -7 15 -11 4 -83 100 -83 109 0 5 -9 13 -20 19
-16 9 -22 8 -26 -4z"/>
<path d="M10057 3368 c16 -24 33 -50 40 -58 7 -8 60 -78 117 -155 58 -77 126
-165 150 -195 25 -30 45 -59 46 -63 0 -5 15 -26 33 -47 18 -22 39 -52 47 -67
8 -15 44 -66 80 -113 36 -47 82 -110 103 -140 21 -30 58 -77 82 -105 l45 -50
0 39 c0 30 -8 48 -39 85 -21 25 -51 66 -66 91 -15 25 -42 61 -60 80 -17 19
-44 57 -60 84 -15 27 -43 65 -61 86 -19 21 -57 73 -85 116 -28 44 -68 97 -88
119 -20 23 -67 79 -106 125 -38 46 -81 96 -95 110 -15 14 -38 42 -53 63 -40
54 -65 50 -30 -5z"/>
<path d="M9020 2466 c0 -14 11 -51 24 -83 14 -32 37 -89 51 -128 15 -38 36
-88 46 -110 19 -42 74 -198 89 -250 65 -234 87 -327 93 -382 3 -35 0 -45 -24
-67 -15 -14 -32 -26 -37 -26 -5 0 -15 -6 -21 -14 -11 -13 -75 -53 -271 -167
-41 -24 -85 -49 -97 -56 -13 -6 -67 -37 -120 -68 -151 -87 -151 -87 -168 -77
-15 8 -65 73 -168 219 -44 61 -182 288 -262 428 -16 29 -42 70 -56 91 -30 45
-71 122 -96 179 -9 22 -32 61 -50 86 -18 25 -44 71 -59 103 -24 53 -54 75 -54
39 0 -35 165 -361 255 -503 22 -36 58 -95 78 -131 20 -37 56 -96 79 -132 41
-62 91 -142 113 -177 6 -9 29 -43 52 -76 24 -32 59 -84 79 -114 l36 -55 -29
-22 c-15 -13 -55 -37 -88 -55 -33 -17 -90 -51 -127 -75 -37 -23 -69 -43 -71
-43 -8 0 -172 -93 -177 -100 -3 -4 -30 -20 -60 -35 -30 -15 -62 -33 -70 -40
-8 -7 -44 -28 -80 -47 -58 -31 -97 -53 -165 -95 -71 -43 -179 -103 -186 -103
-5 0 -9 -4 -9 -9 0 -5 -8 -11 -17 -15 -18 -6 -86 -44 -133 -74 -14 -9 -43 -26
-65 -37 -57 -30 -176 -105 -201 -127 -11 -10 -24 -18 -29 -18 -7 0 -57 -34
-118 -82 -21 -16 84 -17 1936 -18 l1957 0 0 1160 c0 930 -3 1160 -13 1160 -7
0 -28 -10 -47 -23 -19 -13 -50 -29 -67 -36 -18 -8 -33 -17 -33 -20 0 -4 -22
-17 -48 -29 -26 -12 -58 -31 -70 -42 -11 -11 -27 -20 -35 -20 -7 0 -18 -5 -24
-11 -5 -5 -24 -18 -41 -27 -18 -9 -64 -35 -104 -56 -40 -21 -89 -50 -108 -62
-19 -13 -40 -24 -47 -24 -7 0 -13 -4 -13 -8 0 -5 -19 -19 -42 -32 -24 -12 -63
-34 -88 -47 -24 -14 -56 -33 -70 -43 -25 -18 -46 -30 -155 -90 -33 -18 -87
-50 -120 -70 -33 -20 -67 -40 -75 -43 -8 -4 -28 -16 -45 -27 -16 -11 -37 -23
-45 -26 -8 -4 -29 -17 -46 -30 -17 -13 -43 -26 -57 -29 -29 -8 -26 -13 -56
125 -34 158 -141 496 -181 570 -6 11 -22 54 -35 95 -41 126 -115 222 -115 151z"/>
</g>
</svg>
